<?xml version="1.0" encoding="UTF-8"?>
<svg id="Layer_1" data-name="Layer 1" xmlns="http://www.w3.org/2000/svg" width="206.94mm" height="158.42mm" viewBox="0 0 586.59 449.06">
  <defs>
    <style>
      .cls-1 {
        fill: #fff;
      }

      .cls-2 {
        fill: #f8ed44;
      }
    </style>
  </defs>
  <path class="cls-1" d="M0,0h586.59v449.06H0V0ZM377.88,305.4c.12-.2.24-.41.3-.54l-6.32-7.65-2.71-3.27-53.15-64.32,43.41-45.62,37.12-38.31,13.5-13.69.02,76.94h19.64s0-137.71,0-137.71h-19.63s-.04,35.91-.04,35.91l-25.19,25.5-52.98-61.46-22.5.12,40.99,49.63,17.67,21.36,3.72,4.75-32.79,34.5-9.17,9.62-52.03,53.51-.03-77.05-19.69.06v137.74s19.7-.02,19.7-.02v-35.74s25.24-25.57,25.24-25.57l52.83,61.27,22.11.06ZM159.92,167.69l-50.1,113.34-49.73-113.41-21.03.1,60.63,137.68,19.32-.05,60.42-137.68-19.5.02ZM216.65,167.62h-19.7v137.77h19.7v-137.77ZM549.16,305.35l21.03-.02-60.64-137.72h-19.26s-60.42,137.65-60.42,137.65l19.42.11,50.14-113.43,49.73,113.41Z"/>
  <path class="cls-2" d="M377.88,305.4l-22.11-.06-52.83-61.27-25.24,25.57v35.74s-19.7.02-19.7.02v-137.74s19.69-.06,19.69-.06l.03,77.05,52.03-53.51,9.17-9.62,32.79-34.5-3.72-4.75-17.67-21.36-40.99-49.63,22.5-.12,52.98,61.46,25.19-25.5.04-35.92h19.63s0,137.74,0,137.74h-19.64s-.02-76.95-.02-76.95l-13.5,13.69-37.12,38.31-43.41,45.62,53.15,64.32,2.71,3.27,6.32,7.65c-.06.13-.18.34-.3.54Z"/>
  <polygon class="cls-2" points="549.16 305.35 499.43 191.94 449.29 305.38 429.87 305.27 490.29 167.61 509.55 167.62 570.19 305.34 549.16 305.35"/>
  <polygon class="cls-2" points="159.92 167.69 179.42 167.67 119 305.35 99.68 305.4 39.06 167.72 60.08 167.61 109.82 281.03 159.92 167.69"/>
  <rect class="cls-2" x="196.95" y="167.62" width="19.7" height="137.77"/>
</svg>