<?xml version="1.0" encoding="UTF-8"?>
<svg xmlns="http://www.w3.org/2000/svg" viewBox="0 0 586.59 449.06">
  <path fill="#000" d="M377.88,305.4l-22.11-.06-52.83-61.27-25.24,25.57v35.74s-19.7.02-19.7.02v-137.74s19.69-.06,19.69-.06l.03,77.05,52.03-53.51,9.17-9.62,32.79-34.5-3.72-4.75-17.67-21.36-40.99-49.63,22.5-.12,52.98,61.46,25.19-25.5.04-35.92h19.63s0,137.74,0,137.74h-19.64s-.02-76.95-.02-76.95l-13.5,13.69-37.12,38.31-43.41,45.62,53.15,64.32,2.71,3.27,6.32,7.65c-.06.13-.18.34-.3.54Z"/>
  <polygon fill="#000" points="549.16 305.35 499.43 191.94 449.29 305.38 429.87 305.27 490.29 167.61 509.55 167.62 570.19 305.34 549.16 305.35"/>
  <polygon fill="#000" points="159.92 167.69 179.42 167.67 119 305.35 99.68 305.4 39.06 167.72 60.08 167.61 109.82 281.03 159.92 167.69"/>
  <rect fill="#000" x="196.95" y="167.62" width="19.7" height="137.77"/>
</svg>
